<svg width="112" height="129" viewBox="0 0 112 129" fill="none" xmlns="http://www.w3.org/2000/svg">
<mask id="mask0_408_7595" style="mask-type:luminance" maskUnits="userSpaceOnUse" x="0" y="0" width="112" height="129">
<path d="M108.28 93.38L61.76 94.28C61.76 94.28 59.57 94.13 61.82 93.17C64.0298 92.2816 66.1412 91.1656 68.12 89.84C70.12 88.43 72.05 87.01 72.68 83.84C73.31 80.67 71.48 77.61 71.48 77.6L66.92 68C66.92 68 66.8 67 65.48 67C65.07 67 47.24 67 47.24 67C47.24 67 46.74 67 47 67.48C47.26 67.96 67.16 107.56 67.16 107.56C67.3528 107.931 67.4535 108.342 67.4535 108.76C67.4535 109.178 67.3528 109.589 67.16 109.96C66.88 110.52 57.27 126.87 55.88 128.2C54.49 129.53 53.72 127.2 53.72 127.2C53.72 127.2 42.33 105.44 32.84 87.36C26.58 75.44 21.56 65.52 21.56 65.52C21.56 65.52 9.64999 42.52 0.919994 40.08C-0.610006 39.65 0.279994 38.64 0.919994 38.64L50.12 38.4C50.12 38.4 53.6 38.76 50.12 39.6C47.72 40.18 43.29 41.74 41.48 43.92C40.5489 45.0857 39.8928 46.4463 39.5603 47.9006C39.2279 49.355 39.2278 50.8656 39.56 52.32C39.9 53.26 45.56 64.56 45.56 64.56C45.56 64.56 45.66 65.04 46.04 65.04H64.52C64.52 65.04 66.05 65.55 64.76 63.12C64.52 62.67 44.96 24.23 44.76 23.94C44.76 23.94 43.53 22.68 45.03 20.4L56.03 0.959995C56.03 0.959995 56.88 -0.139995 57.71 0.720005C58.18 1.20001 57.95 0.720005 57.95 0.720005C57.95 0.720005 65.23 16.39 74.27 33.6C81.57 47.49 88.69 62.08 91.27 66.72C92.59 69.07 101.27 84.48 108.17 90.62C109.8 92.07 112.37 92.74 111.67 93.12C110.505 93.2943 109.326 93.3546 108.15 93.3L108.28 93.38Z" fill="white"/>
</mask>
<g mask="url(#mask0_408_7595)">
<rect x="-211" y="-178" width="518.4" height="518.4" fill="white"/>
</g>
<mask id="mask1_408_7595" style="mask-type:luminance" maskUnits="userSpaceOnUse" x="80" y="35" width="26" height="21">
<path d="M104.36 35.84C104.36 35.84 99.5699 36.08 93.7999 36.08C87.4699 36.08 80.3599 36.32 80.3599 36.32C80.3599 36.32 87.5998 37.24 89.7198 43.52C90.5214 46.1641 90.6859 48.9602 90.1999 51.68C89.9575 53.0815 89.5548 54.4505 88.9999 55.76C91.2369 51.79 93.8061 48.0165 96.6799 44.48C99.0862 41.6765 101.827 39.1779 104.84 37.04C104.84 37.04 106.26 35.76 104.36 35.84Z" fill="white"/>
</mask>
<g mask="url(#mask1_408_7595)">
<rect x="-211" y="-178" width="518.4" height="518.4" fill="white"/>
</g>
<mask id="mask2_408_7595" style="mask-type:luminance" maskUnits="userSpaceOnUse" x="0" y="71" width="26" height="21">
<path d="M1.91001 91.52C1.91001 91.52 6.7 91.28 12.46 91.28C18.78 91.28 25.88 91.04 25.88 91.04C25.88 91.04 18.65 90.12 16.53 83.84C15.7285 81.196 15.564 78.3998 16.05 75.68C16.2924 74.2785 16.6951 72.9095 17.25 71.6C15.0143 75.5685 12.4486 79.3418 9.57999 82.88C7.17848 85.6846 4.44129 88.1834 1.43 90.32C1.43 90.32 0.0200113 91.6 1.91001 91.52Z" fill="white"/>
</mask>
<g mask="url(#mask2_408_7595)">
<rect x="-211" y="-178" width="518.4" height="518.4" fill="white"/>
</g>
</svg>
